<?xml version="1.0" encoding="utf-8"?>
<!-- Generator: Adobe Illustrator 16.0.0, SVG Export Plug-In . SVG Version: 6.00 Build 0)  -->
<!DOCTYPE svg PUBLIC "-//W3C//DTD SVG 1.1//EN" "http://www.w3.org/Graphics/SVG/1.1/DTD/svg11.dtd">
<svg version="1.1" id="Layer_1" xmlns="http://www.w3.org/2000/svg" xmlns:xlink="http://www.w3.org/1999/xlink" x="0px" y="0px"
	 width="415.683px" height="390.007px" viewBox="0 0 415.683 390.007" enable-background="new 0 0 415.683 390.007"
	 xml:space="preserve">
<g>
	<g>
		<polygon points="46.276,136.406 26.638,136.406 26.638,7.418 5,7.418 5,287.032 26.638,287.032 26.638,152.885 46.276,152.885 
			46.276,287.032 67.914,287.032 67.914,7.418 46.276,7.418 		"/>
	</g>
	<g>
		<path d="M131.896,287.999c4.242-2.773,7.39-6.007,9.356-9.611c1.958-3.589,3.117-7.153,3.445-10.592
			c0.322-3.386,0.486-5.762,0.486-7.062V33.716c0-0.854-0.053-2.129-0.162-3.901c-0.11-1.745-0.44-3.702-0.982-5.817
			c-0.549-2.135-1.489-4.348-2.794-6.577c-1.313-2.243-3.143-4.323-5.438-6.183c-2.296-1.858-5.281-3.38-8.87-4.522
			C123.357,5.578,118.912,5,113.726,5c-5.186,0-9.631,0.578-13.212,1.716c-3.589,1.143-6.573,2.664-8.87,4.522
			c-2.293,1.859-4.123,3.939-5.438,6.183c-1.309,2.237-2.249,4.45-2.793,6.577c-0.544,2.118-0.875,4.076-0.982,5.817
			c-0.108,1.712-0.163,3.025-0.163,3.901v227.018c0,1.314,0.159,3.624,0.486,7.062s1.486,7.001,3.444,10.592
			c1.966,3.604,5.114,6.838,9.356,9.611c4.255,2.781,10.368,4.192,18.17,4.192C121.528,292.191,127.642,290.78,131.896,287.999z
			 M105.161,270.222c-0.624-1.559-0.992-3.215-1.094-4.923c-0.106-1.739-0.16-3.275-0.16-4.565V33.716
			c0-1.284,0.054-2.682,0.16-4.157c0.101-1.425,0.462-2.742,1.074-3.915c0.6-1.149,1.569-2.141,2.882-2.95
			c1.31-0.807,3.229-1.216,5.703-1.216c2.472,0,4.391,0.409,5.703,1.215c1.314,0.811,2.284,1.804,2.883,2.95
			c0.609,1.168,0.971,2.486,1.073,3.915c0.108,1.535,0.161,2.895,0.161,4.157v227.018c0,1.263-0.053,2.756-0.161,4.565
			c-0.104,1.714-0.472,3.37-1.094,4.923c-0.609,1.522-1.589,2.838-2.913,3.908c-1.301,1.05-3.202,1.582-5.652,1.582
			c-2.452,0-4.353-0.532-5.651-1.583C106.75,273.062,105.771,271.748,105.161,270.222z"/>
	</g>
	<g>
		<polygon points="193.808,287.032 204.157,126.621 208.817,56.711 213.478,126.62 223.827,287.032 245.407,287.032 260.941,7.418 
			239.288,7.418 234.365,194.463 219.599,7.418 198.037,7.418 183.27,194.463 178.347,7.418 156.694,7.418 172.228,287.032 		"/>
	</g>
	<g>
		<path d="M322.722,10.682c-3.9-1.625-8.404-2.587-13.386-2.859c-4.965-0.268-10.073-0.404-15.184-0.404h-21.138v279.613h21.138
			c5.155,0,10.265-0.136,15.184-0.404c4.973-0.268,9.477-1.229,13.386-2.858c3.942-1.643,7.163-4.281,9.573-7.841
			c2.411-3.562,3.634-8.674,3.634-15.194V33.716c0-6.517-1.223-11.629-3.634-15.195C329.884,14.961,326.662,12.324,322.722,10.682z
			 M314.29,260.734c0,2.49-0.335,4.423-0.995,5.742c-0.649,1.297-1.697,2.221-3.205,2.823c-1.56,0.623-3.646,0.991-6.203,1.093
			c-2.48,0.103-5.585,0.156-9.234,0.161V23.897c3.582,0.004,6.688,0.058,9.234,0.16c2.566,0.105,4.653,0.474,6.203,1.094
			c1.506,0.603,2.555,1.526,3.205,2.823c0.66,1.322,0.995,3.254,0.995,5.742V260.734z"/>
	</g>
	<g>
		<polygon points="410.079,7.418 388.415,7.418 378.562,145.367 368.709,7.418 347.044,7.418 367.743,188.501 367.743,287.032 
			389.381,287.032 389.378,188.558 		"/>
	</g>
	<g>
		<path d="M180.8,374.786l-0.779,0.762c-0.284,0.277-0.514,0.496-0.69,0.654c-0.175,0.157-0.352,0.309-0.531,0.453
			c-0.058,0.046-0.109,0.085-0.154,0.118c0.049-0.208,0.143-0.535,0.317-1.043c0.954-2.812,1.438-5.131,1.438-6.891
			c0-2.716-1.374-3.286-2.526-3.286c-0.854,0-1.75,0.252-2.663,0.748c-0.883,0.479-1.714,1.111-2.473,1.883
			c-0.656,0.678-1.256,1.379-1.798,2.101c0.107-0.563,0.161-1.022,0.161-1.382c0-0.892-0.13-1.641-0.386-2.227
			c-0.392-0.898-1.036-1.087-1.507-1.087c-2.24,0-4.409,1.408-6.577,4.288c0.427-1.342,0.709-2.369,0.861-3.13l0.12-0.598h-0.61
			c-1.284,0-2.176,0.054-2.731,0.163c-0.659,0.133-1.141,0.462-1.419,0.959c-0.639,1.022-1.32,3.171-2.081,6.568
			c-0.089,0.399-0.173,0.784-0.254,1.159c-0.015,0.016-0.038,0.039-0.052,0.054c-0.221,0.222-0.477,0.457-0.77,0.707
			c-0.261,0.226-0.489,0.381-0.679,0.464c-0.137,0.06-0.268,0.096-0.391,0.107c0.875-1.297,1.317-2.761,1.317-4.362
			c0-0.974-0.292-1.813-0.87-2.494c-0.598-0.706-1.533-1.063-2.779-1.063c-1.233,0-2.2,0.353-2.874,1.047
			c-0.67,0.69-1.01,1.593-1.01,2.683c0,1.035,0.266,2.066,0.791,3.063c0.433,0.824,1.025,1.524,1.764,2.088
			c-0.736,0.698-1.486,1.052-2.235,1.052c-0.878,0-1.608-0.407-2.231-1.246c-0.649-0.872-0.978-2.077-0.978-3.582
			c0-1.508,0.538-2.833,1.641-4.049c1.162-1.262,2.889-1.901,5.132-1.901h0.146l0.123-0.078c0.412-0.263,0.63-0.678,0.624-1.277
			c-0.05-0.317-0.31-0.657-0.893-0.657c-3.551,0-6.448,0.89-8.61,2.645c-2.09,1.696-3.186,4.019-3.286,6.894
			c-0.383,0.363-0.795,0.744-1.266,1.162c-1.658,1.473-2.286,1.874-2.488,1.981l-0.01-0.104c0.007-0.1,0.01-0.156,0.01-0.173
			c0-0.403,0.365-1.828,2.809-6.839c1.298-2.689,1.298-2.894,1.298-3.058c0-0.176-0.073-0.75-1.074-0.75
			c-0.002,0-2.122,0.25-2.122,0.25c-0.859,0-1.534-0.103-2.018-0.307c0.141-0.172,0.271-0.375,0.386-0.609
			c0.25-0.507,0.377-0.992,0.377-1.442c0-0.913-0.491-1.459-1.314-1.459c-1.194,0-2.172,0.372-2.905,1.105
			c-0.451,0.452-0.749,0.959-0.924,1.507c-0.113-0.031-0.228-0.061-0.361-0.061c0,0-0.001,0-0.002,0
			c-1.413-0.072-2.678-0.109-3.762-0.109c-0.859,0-1.712,0.038-2.544,0.114c0.139-0.764,0.358-1.986,0.658-3.67
			c0.366-2.057,0.669-3.723,0.911-5c0.573,0.051,1.418,0.138,2.522,0.263c1.465,0.164,2.786,0.247,3.927,0.247h0.267l3.22-4.817
			h-0.936c-0.53,0-1.342-0.007-2.438-0.019c-1.099-0.012-2.59-0.019-4.474-0.019c-1.885,0-3.808,0.067-5.723,0.201
			c-4.216,0.356-7.626,1.398-10.135,3.097c-2.583,1.749-3.893,3.863-3.893,6.285c0,1.357,0.518,2.658,1.538,3.868
			c0.996,1.18,2.506,2.188,4.49,2.999l0.356,0.146l0.232-0.308c0.122-0.162,0.259-0.45,0.437-1.453
			c0.125-0.707,0.189-1.336,0.189-1.869v-0.325l-0.297-0.132c-1.748-0.774-2.598-1.768-2.598-3.034c0-0.535,0.266-1.109,0.789-1.706
			c0.569-0.647,1.331-1.238,2.265-1.756c0.947-0.525,2.091-0.964,3.401-1.301c1.134-0.292,2.297-0.46,3.45-0.5
			c-0.395,0.397-0.775,0.867-1.14,1.412c-0.152,0.262-0.313,0.646-0.494,1.177c-0.086,0.257-0.166,0.506-0.239,0.745
			c-0.075,0.242-0.159,0.557-0.252,0.941c-0.09,0.371-0.17,0.694-0.243,0.97c-0.073,0.28-0.165,0.659-0.274,1.135
			c-0.109,0.472-0.233,1.019-0.372,1.641c-0.121,0.542-0.258,1.133-0.412,1.772c-0.796,0.257-1.428,0.486-1.879,0.684
			c-0.59,0.258-0.996,0.602-1.211,1.031c-0.14,0.296-0.21,0.636-0.21,1.01c0,0.458,0.144,0.808,0.428,1.039
			c0.245,0.199,0.504,0.302,0.811,0.302c0.001,0,0.382-0.009,0.382-0.009l0.79-0.229c-0.768,3.043-1.547,5.564-2.321,7.505
			c-0.484,1.21-1.003,2.143-1.543,2.773c-0.463,0.539-0.931,0.802-1.481,0.802c-0.001,0-0.002,0-0.003,0
			c-0.668-0.023-0.914-0.299-1.04-0.503c-0.239-0.389-0.36-0.979-0.36-1.756c0-0.842,0.064-1.618,0.19-2.308l0.108-0.59h-0.6
			c-3.598,0-4.354,1.807-4.354,3.322c0,0.525,0.118,1.062,0.349,1.593c0.879,2.024,2.573,3.051,5.036,3.051
			c1.937,0,3.655-0.491,5.11-1.46c1.246-0.839,2.377-2.215,3.365-4.091c1.082-2.057,2.07-5.185,2.938-9.299
			c1.349-0.1,3.324-0.149,5.883-0.149c0.617,0,1.172-0.308,1.65-0.914c0.124-0.157,0.227-0.313,0.317-0.47
			c0.449,0.485,1.1,0.873,1.967,1.169l-3.239,3.367v3.459l0.858-0.883c0.797-0.82,1.651-1.646,2.539-2.458
			c0.205-0.188,0.404-0.371,0.599-0.553c-0.15,0.348-0.292,0.682-0.428,1.002c-0.267,0.63-0.554,1.334-0.863,2.108
			c-0.311,0.779-0.562,1.484-0.747,2.095c-0.194,0.642-0.293,1.223-0.293,1.728c0,0.542,0.155,1.096,0.461,1.645
			c0.354,0.636,0.918,0.972,1.631,0.972c0.894,0,2.541-0.507,6.641-4.283c0.114,0.423,0.248,0.835,0.424,1.222
			c0.916,2.031,2.476,3.062,4.635,3.062c1.444,0,2.857-0.384,4.199-1.141c1.224-0.69,2.308-1.577,3.227-2.64
			c0.454,0.119,0.946,0.18,1.467,0.18c0.397,0,0.799-0.092,1.2-0.255c-0.188,1.123-0.308,2.064-0.354,2.8l-0.033,0.531h4.377
			l0.096-0.377c0.425-1.679,1.159-3.735,2.182-6.114c0.537-1.262,1.185-2.418,1.926-3.439c0.71-0.98,1.427-1.642,2.077-1.945
			c0.096-0.031,0.199-0.047,0.307-0.048c0,0,0.051,0.015,0.142,0.116c0.029,0.032,0.125,0.171,0.125,0.588
			c0,0.212-0.112,0.931-0.865,3.372c-1.013,3.298-1.505,5.701-1.505,7.348v0.5h4.353l0.103-0.364
			c0.45-1.601,1.059-3.348,1.807-5.189c0.487-1.164,0.985-2.217,1.48-3.13c0.484-0.894,1.037-1.671,1.643-2.31
			c0.706-0.746,1.112-0.857,1.292-0.857c0.461,0,0.607,0.177,0.655,0.234c0.154,0.187,0.229,0.379,0.229,0.586
			c0,1.141-0.408,2.621-1.213,4.399c-0.864,1.907-1.302,3.623-1.302,5.1c0,1.82,0.982,2.092,1.568,2.092
			c0.498,0,1.365-0.25,3.669-2.198c1.644-1.39,3.245-2.887,4.759-4.449l0.141-0.146v-3.437l-1.812,1.813
			C181.329,374.267,181.029,374.564,180.8,374.786z M152.881,374.056c-0.142,0.403-0.282,0.755-0.42,1.05
			c-0.295-0.283-0.543-0.625-0.743-1.02c-0.294-0.583-0.444-1.149-0.444-1.684c0-1.103,0.468-1.255,0.975-1.255
			c0.585,0,0.975,0.198,0.975,1.165C153.224,372.82,153.109,373.407,152.881,374.056z"/>
	</g>
	<g>
		<path d="M280.78,361.342c0.669-0.661,1.008-1.312,1.008-1.938c0-0.646-0.215-1.146-0.64-1.485
			c-0.396-0.316-0.948-0.471-1.688-0.471c-0.771,0-1.44,0.346-1.989,1.026c-0.524,0.648-0.79,1.342-0.79,2.061
			c0,1.146,0.65,1.803,1.784,1.803C279.336,362.337,280.114,362.002,280.78,361.342z"/>
	</g>
	<g>
		<path d="M311.334,374.828c-0.911,0.918-1.664,1.656-2.259,2.214c-0.573,0.539-1.244,1.06-1.992,1.547
			c-0.692,0.45-1.261,0.679-1.69,0.679c-1.09,0-2.539-0.382-2.539-3.68c0-0.715,0.137-1.452,0.406-2.2
			c0.35,0.381,0.741,0.689,1.172,0.921c0.673,0.364,1.337,0.549,1.975,0.549c1.51,0,2.884-0.559,4.083-1.66
			c1.212-1.113,1.826-2.445,1.826-3.96c0-1.681-0.827-3.684-4.77-3.684c-1.791,0-3.441,0.554-4.903,1.646
			c-1.441,1.075-2.562,2.467-3.331,4.135c-0.563,1.225-0.918,2.508-1.067,3.829c-0.521,0.536-1.05,1.075-1.607,1.623
			c-1.679,1.649-2.109,1.832-2.114,1.855c-0.002-0.001-0.147-0.139-0.147-0.856c0-0.817,0.336-2.127,0.998-3.894l0.381-0.381
			c0.715-0.666,1.719-1.817,2.984-3.423c0.627-0.8,1.26-1.733,1.881-2.775c0.619-1.038,1.193-2.125,1.706-3.229
			c0.52-1.118,0.947-2.36,1.271-3.693c0.328-1.342,0.494-2.575,0.494-3.664c0-1.172-0.268-2.084-0.796-2.71
			c-0.55-0.652-1.303-0.983-2.236-0.983c-1.428,0-2.884,0.876-4.328,2.604c-0.882,1.055-1.69,2.298-2.432,3.681
			c0.175-0.931,0.265-1.801,0.265-2.592c0-1.172-0.268-2.084-0.796-2.71c-0.55-0.652-1.303-0.983-2.236-0.983
			c-1.428,0-2.884,0.876-4.328,2.604c-1.377,1.646-2.593,3.709-3.614,6.133c-1.014,2.402-1.856,5.061-2.505,7.898
			c-0.365,1.597-0.618,3.118-0.78,4.57c-0.626,0.65-1.341,1.372-2.161,2.178c-1.743,1.712-2.164,1.914-2.164,1.932
			c-0.001-0.001-0.125-0.124-0.125-0.698c0-0.809,0.492-3.348,2.836-10.851l0.202-0.649h-0.68c-0.716,0-1.297,0.019-1.791,0.058
			c-0.406,0.043-0.697,0.113-0.915,0.219c-0.174,0.084-0.38,0.197-0.613,0.34c-0.283,0.174-0.521,0.41-0.704,0.702
			c-0.165,0.261-0.36,0.687-0.596,1.3c-0.233,0.604-0.681,2.264-1.367,5.072c-0.048,0.194-0.089,0.372-0.134,0.557l-0.954,0.977
			c-0.262,0.268-0.613,0.61-1.054,1.026c-0.181,0.172-0.328,0.284-0.445,0.358c-0.045-0.121-0.101-0.249-0.167-0.385
			c0.331-0.878,0.726-2.155,1.202-3.892c0.516-1.88,0.778-3.449,0.778-4.665c0-1.871-0.774-2.264-1.423-2.264
			c-0.682,0-1.282,0.383-1.782,1.137c-0.436,0.657-0.779,1.492-1.02,2.483c-0.233,0.955-0.41,1.943-0.526,2.937
			c-0.116,0.986-0.175,1.809-0.175,2.446c0,0.383,0,0.646,0.009,0.834c-0.09,0.162-0.288,0.499-0.591,1.011
			c-1.187,2.009-1.599,2.224-1.572,2.232c-0.003,0-0.353-0.128-0.782-1.628c-0.365-1.276-0.551-2.828-0.551-4.611
			c0-1.798,0.186-3.699,0.553-5.651l0.111-0.593h-2.05c-1.363,0-3.192,0.138-3.335,1.315c-0.16,1.101-0.241,2.434-0.241,3.961
			c0,1.034,0.036,2.002,0.105,2.905c-0.311,0.307-0.645,0.639-1.024,1.022c-0.836,0.843-1.309,1.283-1.574,1.512
			c0.046-0.854,0.428-2.326,1.135-4.381c1.07-3.111,1.194-3.953,1.194-4.315c0-2.276-1.424-2.616-2.273-2.616
			c-1.485,0-3.015,0.624-4.547,1.855c-0.699,0.562-1.339,1.185-1.917,1.862l4.062-14.699l-0.418-0.165
			c-0.141-0.056-0.367-0.107-1.062-0.107c-0.477,0-0.958,0.019-1.439,0.057c-0.605,0.046-1.104,0.293-1.479,0.73
			c-0.551,0.633-1.107,2.023-1.698,4.251l-1.32,4.92c-1.056,3.896-1.911,7.106-2.574,9.672l-2.215,1.812
			c0.118-0.394,0.178-0.771,0.178-1.13c0-0.723-0.432-1.512-1.316-2.41c-0.336-0.348-0.684-0.714-1.053-1.107
			c-0.758-0.768-1.34-1.625-1.736-2.554c0.575-0.097,1.125-0.312,1.642-0.646c0.783-0.504,1.197-1.253,1.197-2.166
			c0-0.423-0.213-1.133-1.64-1.133c-1.86,0-3.292,0.519-4.253,1.541c-0.955,1.014-1.439,2.307-1.439,3.844
			c0,0.901,0.14,1.755,0.417,2.542c-0.11,0.125-0.267,0.299-0.473,0.52c-3.815,4.024-4.855,4.345-5.035,4.371
			c-0.001-0.001-0.091-0.113-0.091-0.576c0-0.454,0.161-1.742,0.929-5.304c0.228-1.061,0.458-2.099,0.687-3.117
			c0.233-1.04,0.356-1.604,0.369-1.69l0.063-0.423l-0.408-0.128c-1.326-0.417-2.369-0.62-3.19-0.62c-1.62,0-3.226,0.35-4.771,1.038
			c-1.537,0.685-2.877,1.582-3.983,2.669c-1.103,1.085-2.004,2.337-2.677,3.721c-0.286,0.588-0.499,1.178-0.666,1.767l-2.742,2.625
			c-0.583,0.594-0.954,0.719-1.163,0.719c-0.278,0-0.749-0.706-0.749-3.354c0-2.522,0.751-7.542,2.233-14.916
			c0.69-3.367,0.77-4.075,0.77-4.315c0-1.387-0.736-2.183-2.02-2.183c-0.679,0-1.402,0.097-2.15,0.286
			c-3.131,0.8-6.509,3.187-10.056,7.104c0.071-0.332,0.242-1.052,0.641-2.614c0.485-1.896,0.721-3.182,0.721-3.932
			c0-0.505-0.346-0.844-0.862-0.844c-0.707,0-1.77,0.474-3.342,1.488l-7.795,4.912c-0.554,0.379-0.67,0.837-0.67,1.155
			c0,1.284,0.691,1.423,0.988,1.423h0.081l0.69-0.229l4.772-3.38l-1.146,4.447c-0.371,1.648-0.938,3.855-1.686,6.562
			c-0.753,2.723-1.357,5.055-1.796,6.93c-0.447,1.909-0.673,3.463-0.673,4.619v0.5h4.618l0.094-0.379
			c0.636-2.544,1.104-4.555,1.389-5.975c0.282-1.407,0.481-2.368,0.595-2.887c0.11-0.5,0.329-1.271,0.649-2.294
			c0.199-0.642,0.407-1.227,0.618-1.737s0.495-1.123,0.845-1.822c0.344-0.688,0.714-1.314,1.102-1.862
			c0.391-0.555,0.878-1.164,1.45-1.812c0.563-0.639,1.171-1.229,1.807-1.754c0.639-0.527,1.393-1.059,2.241-1.579
			c0.849-0.521,1.608-0.923,2.257-1.195c0.788-0.33,1.014-0.379,1.005-0.419c0.01,0.021,0.038,0.099,0.038,0.283
			c0,0.312-0.088,1.004-0.507,2.536c-0.16,0.577-0.27,1-0.333,1.281c-1.087,5.353-1.639,10.106-1.639,14.131
			c0,1.611,0,6.516,2.979,6.516c0.832,0,2.415-0.468,6.465-4.296c0.012,0.104,0.019,0.21,0.034,0.313
			c0.475,2.872,1.987,3.476,3.171,3.476c1.269,0,2.537-0.438,3.77-1.303c0.756-0.53,1.459-1.135,2.101-1.806
			c-0.002,0.081-0.003,0.16-0.003,0.238c0,2.372,1.02,2.87,1.875,2.87c0.464,0,1.294-0.217,3.614-1.904
			c0.291-0.211,0.589-0.448,0.886-0.682c0.278,0.866,0.927,1.525,1.922,1.932c0.546,0.229,1.114,0.398,1.688,0.502
			c0.562,0.101,1.109,0.152,1.626,0.152c0.531,0,1.068-0.073,1.597-0.217c0.51-0.139,0.985-0.302,1.412-0.483
			c0.436-0.186,0.947-0.463,1.518-0.824c0.562-0.354,1.024-0.657,1.385-0.908c0.363-0.252,0.843-0.617,1.439-1.097
			c0.238-0.191,0.441-0.356,0.625-0.508c-0.346,1.443-0.556,2.428-0.626,2.944l-0.078,0.568h3.578l0.14-0.117
			c0.45-0.379,0.821-0.946,1.104-1.688c0.259-0.677,0.593-1.791,1.021-3.407c0.397-1.503,1.172-3.021,2.303-4.512
			c1.071-1.411,2.066-2.127,2.958-2.127c0.412,0,0.531,0.119,0.531,0.531c0,1.394-0.486,3.719-1.445,6.914
			c-0.347,1.177-0.541,1.924-0.595,2.287c-0.053,0.366-0.077,0.621-0.077,0.768c0,1.692,1.16,1.875,1.658,1.875
			c0.744,0,2.166-0.531,6.015-4.68c0.257,1.142,0.595,2.122,1.023,2.917c0.634,1.17,1.428,1.763,2.357,1.763
			c0.547,0,1.122-0.055,1.709-0.161c0.648-0.119,1.327-0.462,2.08-1.055c0.484-0.394,1.116-1.245,1.923-2.594
			c0.466,0.776,0.911,1.132,1.398,1.132c0.359,0,0.801-0.152,1.391-0.479c0.138-0.077,0.349-0.221,0.71-0.528
			c-0.029,0.25-0.047,0.468-0.047,0.634c0,0.831,0.155,1.531,0.461,2.079c0.353,0.636,0.917,0.972,1.631,0.972h0.011l0.012-0.001
			c1.172-0.053,2.505-0.712,4.079-2.015c0.548-0.458,1.46-1.303,2.709-2.506v0.458c0,0.161,0.006,0.4,0.019,0.715
			c0.013,0.335,0.037,0.601,0.07,0.794c0.029,0.185,0.07,0.406,0.119,0.664c0.059,0.31,0.142,0.558,0.254,0.758
			c0.092,0.163,0.223,0.363,0.394,0.6c0.255,0.354,0.683,0.533,1.273,0.533h0.018l0.019-0.001c1.26-0.091,2.622-0.668,4.05-1.715
			c0.934-0.685,2.045-1.67,3.312-2.93v0.582c0,0.161,0.006,0.4,0.019,0.715c0.013,0.335,0.037,0.601,0.07,0.794
			c0.029,0.185,0.07,0.406,0.119,0.664c0.059,0.31,0.142,0.558,0.254,0.758c0.092,0.163,0.223,0.363,0.394,0.6
			c0.255,0.354,0.683,0.533,1.273,0.533h0.018l0.019-0.001c1.26-0.091,2.622-0.668,4.05-1.715c0.731-0.536,1.573-1.259,2.511-2.149
			c0.063,0.306,0.122,0.615,0.22,0.884c0.754,1.979,2.628,2.981,5.569,2.981c1.464,0,3.012-0.586,4.6-1.742
			c1.527-1.111,3.282-2.753,5.215-4.881l0.13-0.143v-3.304l-0.834,0.748C312.896,373.276,312.25,373.906,311.334,374.828z
			 M305.312,369.282c0.282-0.313,0.633-0.581,1.043-0.795c0.396-0.205,0.812-0.306,1.271-0.306c0.405,0,0.706,0.087,0.893,0.257
			c0.079,0.073,0.263,0.331,0.263,1.161c0,0.655-0.219,1.268-0.669,1.872c-0.417,0.559-0.881,0.83-1.418,0.83
			c-0.889,0-1.699-0.447-2.47-1.364C304.448,370.405,304.813,369.848,305.312,369.282z M298.772,359.302
			c1.009-2.959,1.783-3.188,1.996-3.188c0.107,0,0.278,0.326,0.278,1.2c0,1.066-0.506,2.885-1.504,5.408
			c-0.469,1.196-1.102,2.452-1.879,3.731c-0.393,0.646-0.802,1.246-1.223,1.799C297.305,364.318,298.087,361.312,298.772,359.302z
			 M222.985,376.083c-0.554,0.575-1.177,1.11-1.853,1.594c-0.812,0.581-1.308,0.703-1.582,0.703c-0.348,0-1.273,0-1.273-2.214
			c0-1.18,0.34-2.422,1.01-3.692c0.675-1.281,1.602-2.376,2.756-3.256c0.92-0.701,1.872-1.119,2.838-1.248L222.985,376.083z
			 M236.167,379.554c-0.418,0.229-0.995,0.346-1.714,0.346c-0.715,0-1.365-0.2-1.985-0.613c-0.556-0.368-0.826-0.794-0.826-1.302
			c0-0.174,0.11-0.61,0.845-1.438c0.294-0.291,0.587-0.575,0.885-0.883l0.048-0.05c0.067-0.062,0.122-0.116,0.194-0.181
			c0.324-0.294,0.555-0.506,0.721-0.66c0.1,0.121,0.217,0.262,0.352,0.421c0.342,0.407,0.598,0.726,0.769,0.954
			c0.169,0.229,0.368,0.521,0.595,0.875c0.211,0.331,0.366,0.648,0.461,0.942c0.092,0.286,0.138,0.618,0.138,0.987
			C236.649,379.044,236.649,379.29,236.167,379.554z M289.245,359.302c1.009-2.959,1.783-3.188,1.996-3.188
			c0.107,0,0.278,0.326,0.278,1.2c0,1.066-0.506,2.885-1.504,5.408c-0.469,1.196-1.102,2.452-1.879,3.731
			c-0.393,0.646-0.802,1.246-1.223,1.799C287.777,364.318,288.56,361.312,289.245,359.302z M284.995,378.642
			c-0.002-0.001-0.147-0.139-0.147-0.856c0-0.817,0.336-2.127,0.998-3.894l0.381-0.381c0.715-0.666,1.719-1.817,2.984-3.423
			c0.627-0.8,1.26-1.733,1.881-2.775c0.086-0.145,0.165-0.297,0.249-0.443c-0.262,0.913-0.511,1.842-0.729,2.799
			c-0.342,1.494-0.59,2.926-0.753,4.293c-0.862,0.922-1.768,1.861-2.749,2.825C285.431,378.436,285,378.619,284.995,378.642z"/>
	</g>
	<g>
		<polygon points="213.301,318.235 210.509,309.578 207.717,318.235 198.621,318.214 205.991,323.545 203.162,332.19 
			210.509,326.828 217.855,332.19 215.027,323.545 222.398,318.214 		"/>
	</g>
	<g>
		<polygon points="242.715,318.235 239.923,309.578 237.131,318.235 228.035,318.214 235.406,323.545 232.575,332.191 
			239.923,326.828 247.271,332.191 244.441,323.545 251.812,318.214 		"/>
	</g>
	<g>
		<polygon points="183.887,318.235 181.095,309.578 178.303,318.235 169.207,318.214 176.577,323.545 173.748,332.19 
			181.095,326.828 188.441,332.19 185.613,323.545 192.984,318.214 		"/>
	</g>
</g>
<g>
</g>
<g>
</g>
<g>
</g>
<g>
</g>
<g>
</g>
<g>
</g>
</svg>
